# Alias OBJ Model File
# Exported from SketchUp, (c) 2000-2012 Trimble Navigation Limited
# File units = inches

mtllib LaboratoryFloorplan.mtl

g Mesh1 Model

usemtl FrontColor
v 165 31 -167
vt -167 31
vn -1 0 -0
v 165 31 -160.5
vt -160.5 31
v 165 31 -149
vt -149 31
v 165 103 -149
vt -149 103
v 165 103 -167
vt -167 103
f 1/1/1 2/2/1 3/3/1 4/4/1 5/5/1 

vt -165 167
vn 0 -1 -0
vt -165 160.5
vt -165 149
v 161 31 -149
vt -161 149
v 161 31 -148.5
vt -161 148.5
v 158 31 -148.5
vt -158 148.5
v 158 31 -160.5
vt -158 160.5
v 7 31 -160.5
vt -7 160.5
v 7 31 -167
vt -7 167
v 8.25 31 -167
vt -8.25 167
v 85 31 -167
vt -85 167
v 87 31 -167
vt -87 167
v 164 31 -167
vt -164 167
f 1/6/2 2/7/2 3/8/2 6/9/2 7/10/2 8/11/2 9/12/2 10/13/2 11/14/2 12/15/2 13/16/2 14/17/2 15/18/2 

vt 165 103
vn 0 0 1
v 161 103 -149
vt 161 103
vt 161 31
vt 165 31
f 4/19/3 16/20/3 6/21/3 3/22/3 

vt 161 149
vn 0 1 -0
v 161 103 -69
vt 161 69
v 214 103 -69
vt 214 69
v 214 103 -27
vt 214 27
v 151 103 -0
vt 151 0
v 6.5 103 -0
vt 6.5 0
v 0 103 -0
vt 0 0
v 0 103 4.5
vt 0 -4.5
v 6.5 103 4.5
vt 6.5 -4.5
v 151.924 103 4.5
vt 151.924 -4.5
v 218.5 103 -24.0327
vt 218.5 24.0327
v 218.5 103 -73.5
vt 218.5 73.5
v 165.5 103 -73.5
vt 165.5 73.5
v 165.5 103 -148.5
vt 165.5 148.5
v 218.5 103 -148.5
vt 218.5 148.5
v 218.5 103 -167
vt 218.5 167
vt 165 167
vt 165 149
f 16/23/4 17/24/4 18/25/4 19/26/4 20/27/4 21/28/4 22/29/4 23/30/4 24/31/4 25/32/4 26/33/4 27/34/4 28/35/4 29/36/4 30/37/4 31/38/4 5/39/4 4/40/4 

v 161 0 -69
vt -69 0
vt -69 103
vt -148.5 31
v 161 0 -148.5
vt -148.5 0
f 32/41/1 17/42/1 16/4/1 6/3/1 7/43/1 33/44/1 

vt 161 0
v 214 0 -69
vt 214 0
vt 214 103
f 32/45/3 34/46/3 18/47/3 17/20/3 

v 151 0 -0
vt -151 0
v 6.5 0 -0
vt -6.5 0
v 6.5 0 -159
vt -6.5 159
v 7 0 -159
vt -7 159
v 7 0 -160.5
v 158 0 -160.5
v 158 0 -148.5
vt -161 69
vt -214 69
v 214 0 -27
vt -214 27
f 35/48/2 36/49/2 37/50/2 38/51/2 39/13/2 40/12/2 41/11/2 33/10/2 32/52/2 34/53/2 42/54/2 

v 165.5 0 -148.5
vt -165.5 148.5
v 165.5 0 -73.5
vt -165.5 73.5
v 218.5 0 -73.5
vt -218.5 73.5
v 218.5 0 -24.0327
vt -218.5 24.0327
v 151.924 0 4.5
vt -151.924 -4.5
v 6.5 0 4.5
vt -6.5 -4.5
v 0 0 4.5
v 0 0 -0
f 33/10/2 43/55/2 44/56/2 45/57/2 46/58/2 47/59/2 48/60/2 49/30/2 50/29/2 36/49/2 35/48/2 42/54/2 34/53/2 32/52/2 

v 218.5 0 -167
vt -218.5 167
v 218.5 0 -148.5
vt -218.5 148.5
v 161 0 -149
v 165 0 -149
v 165 0 -160.5
v 165 0 -167
f 51/61/2 52/62/2 43/55/2 33/10/2 53/9/2 54/8/2 55/7/2 56/6/2 

vt 148.5 0
vn 1 0 -0
vt 167 0
vt 167 103
vt 148.5 103
f 52/63/5 51/64/5 31/65/5 30/66/5 

vt -218.5 0
vn 0 0 -1
vt -165 0
vt -165 31
vt -165 103
vt -218.5 103
f 51/67/6 56/68/6 1/69/6 5/70/6 31/71/6 

v 7 0 -167
vt 7 0
vt 165 0
vt 164 31
vt 87 31
vt 85 31
vt 8.25 31
vt 7 31
f 57/72/3 56/73/3 1/22/3 15/74/3 14/75/3 13/76/3 12/77/3 11/78/3 

usemtl M_0135_DarkGray
v 164 103 -167
vt 164 103
f 1/22/3 5/19/3 58/79/3 15/74/3 

usemtl Translucent_Glass_Blue
v 87 103 -167
vt 87 103
f 58/79/3 59/80/3 14/75/3 15/74/3 

usemtl M_0135_DarkGray
v 85 103 -167
vt 85 103
f 59/80/3 60/81/3 13/76/3 14/75/3 

usemtl Translucent_Glass_Blue
v 8.25 103 -167
vt 8.25 103
f 60/81/3 61/82/3 12/77/3 13/76/3 

usemtl M_0135_DarkGray
v 7 103 -167
vt 7 103
f 61/82/3 62/83/3 11/78/3 12/77/3 

usemtl FrontColor
v 7 0 -171
vt 171 0
v 7 103 -171
vt 171 103
vt 167 31
f 57/64/5 63/84/5 64/85/5 62/65/5 11/86/5 

v -4.5 0 -171
vt 4.5 171
vt -7 171
v 0 0 -159
vt 0 159
v -4.5 0 -159
vt 4.5 159
f 65/87/2 63/88/2 57/14/2 39/13/2 38/51/2 37/50/2 66/89/2 67/90/2 

vt -7 0
vt 4.5 0
v -4.5 103 -171
vt 4.5 103
vt -7 103
f 63/91/6 65/92/6 68/93/6 64/94/6 

vt -171 0
vt -159 0
v -4.5 103 -159
vt -159 103
vt -171 103
f 65/95/1 67/96/1 69/97/1 68/98/1 

vt -4.5 0
v 0 31 -159
vt 0 31
v 0 103 -159
vt 0 103
vt -4.5 103
f 67/99/3 66/29/3 70/100/3 71/101/3 69/102/3 

vt 159 0
vt 159 31
v 0 31 -157.75
vt 157.75 31
v 0 31 -80
vt 80 31
v 0 31 -78
vt 78 31
v 0 31 -0.5
vt 0.5 31
v 0 31 -0
f 50/29/5 66/103/5 70/104/5 72/105/5 73/106/5 74/107/5 75/108/5 76/100/5 

v 6.5 31 -159
v 6.5 31 -0
vt 0 0.5
vt 0 78
vt 0 80
vt 0 157.75
f 70/89/2 77/50/2 78/49/2 76/29/2 75/109/2 74/110/2 73/111/2 72/112/2 

vt 6.5 31
v 6.5 103 -159
vt 6.5 103
f 70/100/3 77/113/3 79/114/3 71/101/3 

v 7 103 -159
f 37/28/3 38/72/3 80/83/3 79/114/3 77/113/3 

vt 160.5 0
vt 160.5 31
v 7 103 -160.5
vt 160.5 103
vt 159 103
f 38/103/5 39/115/5 10/116/5 81/117/5 80/118/5 

vt -158 0
vt -7 31
vt -158 31
f 40/119/6 39/91/6 10/120/6 9/121/6 

vt 148.5 31
f 41/63/5 40/115/5 9/116/5 8/122/5 

vt -161 31
vt -161 0
f 8/121/6 7/123/6 33/124/6 41/119/6 

f 10/116/5 11/86/5 62/65/5 81/117/5 

vt 7 171
vt -4.5 171
vt -4.5 159
vt 6.5 159
vt 7 159
vt 7 160.5
vt 7 167
f 64/125/4 68/126/4 69/127/4 71/89/4 79/128/4 80/129/4 81/130/4 62/131/4 

vt -159 31
f 37/96/1 36/29/1 78/100/1 77/132/1 

vt -6.5 31
vt -6.5 103
vt -151 103
f 35/48/6 36/49/6 78/133/6 21/134/6 20/135/6 

f 78/133/6 76/100/6 22/101/6 21/134/6 

usemtl M_0135_DarkGray
v 0 103 -0.5
vt 0.5 103
f 82/136/5 22/101/5 76/100/5 75/108/5 

usemtl FrontColor
f 50/29/1 49/92/1 23/93/1 22/101/1 76/100/1 

f 49/29/3 48/28/3 24/114/3 23/101/3 

vn 9.16129e-17 0 1
vt 151.924 0
vt 151.924 103
f 48/28/7 47/137/7 25/138/7 24/114/7 

vt 137.867 0
vn 0.393919 0 0.919145
vt 210.3 0
vt 210.3 103
vt 137.867 103
f 47/139/8 46/140/8 26/141/8 25/142/8 

vt 24.0327 0
vt 73.5 0
vt 73.5 103
vt 24.0327 103
f 46/143/5 45/144/5 27/145/5 26/146/5 

vt -165.5 0
vt -165.5 103
f 45/67/6 44/147/6 28/148/6 27/71/6 

f 44/144/5 43/63/5 29/66/5 28/145/5 

vt 165.5 0
vt 218.5 0
vt 218.5 103
vt 165.5 103
f 43/149/3 52/150/3 30/151/3 29/152/3 

usemtl Translucent_Glass_Blue
v 0 103 -78
vt 78 103
f 83/153/5 82/136/5 75/108/5 74/107/5 

usemtl M_0135_DarkGray
v 0 103 -80
vt 80 103
f 84/154/5 83/153/5 74/107/5 73/106/5 

usemtl Translucent_Glass_Blue
v 0 103 -157.75
vt 157.75 103
f 85/155/5 84/154/5 73/106/5 72/105/5 

usemtl M_0135_DarkGray
f 71/118/5 85/155/5 72/105/5 70/104/5 

usemtl FrontColor
vt -207.333 0
vn -0.393919 0 -0.919145
vt -138.791 0
vt -138.791 103
vt -207.333 103
f 42/156/9 35/157/9 20/158/9 19/159/9 

vt -27 0
vt -27 103
f 34/41/1 42/160/1 19/161/1 18/42/1 

